<svg id="Component_68_3" data-name="Component 68 – 3" xmlns="http://www.w3.org/2000/svg" width="22" height="22" viewBox="0 0 22 22">
  <rect id="Rectangle_12" data-name="Rectangle 12" width="22" height="22" fill="none"/>
  <g id="lock" transform="translate(-5)">
    <path id="Path_240" data-name="Path 240" d="M27.008,7.548V5.5A3.5,3.5,0,0,0,23.5,2h0A3.5,3.5,0,0,0,20,5.5V7.548" transform="translate(-7.08)" fill="none" stroke="#020202" stroke-linecap="round" stroke-linejoin="round" stroke-miterlimit="10" stroke-width="1"/>
    <path id="Path_241" data-name="Path 241" d="M21.681,36.513H11.168A1.168,1.168,0,0,1,10,35.345V27.168A1.168,1.168,0,0,1,11.168,26H21.681a1.168,1.168,0,0,1,1.168,1.168v8.176A1.168,1.168,0,0,1,21.681,36.513Z" transform="translate(0 -16.992)" fill="none" stroke="#020202" stroke-linecap="round" stroke-linejoin="round" stroke-miterlimit="10" stroke-width="1"/>
    <line id="Line_2" data-name="Line 2" y2="3" transform="translate(17 14)" fill="none" stroke="#020202" stroke-linecap="round" stroke-linejoin="round" stroke-miterlimit="10" stroke-width="1"/>
    <circle id="Ellipse_57" data-name="Ellipse 57" cx="1" cy="1" r="1" transform="translate(16 12)" fill="none" stroke="#020202" stroke-linecap="round" stroke-linejoin="round" stroke-miterlimit="10" stroke-width="0.75"/>
  </g>
</svg>
