<svg id="Component_66_3" data-name="Component 66 – 3" xmlns="http://www.w3.org/2000/svg" width="22" height="22" viewBox="0 0 22 22">
  <rect id="Rectangle_12" data-name="Rectangle 12" width="22" height="22" fill="none"/>
  <g id="user-_2_" data-name="user-(2)" transform="translate(-28 2)">
    <path id="Path_236" data-name="Path 236" d="M125.606,0a4.606,4.606,0,1,0,4.606,4.606A4.611,4.611,0,0,0,125.606,0Zm0,8.188a3.582,3.582,0,1,1,3.582-3.582A3.587,3.587,0,0,1,125.606,8.188Z" transform="translate(-86.929)" fill="#1a1c31"/>
    <path id="Path_237" data-name="Path 237" d="M40.1,301H37.249A7.4,7.4,0,0,0,31,304.427V308.2H46.353v-3.772A7.4,7.4,0,0,0,40.1,301Zm5.226,6.175H32.024v-2.435a6.37,6.37,0,0,1,5.226-2.717H40.1a6.37,6.37,0,0,1,5.226,2.717Z" transform="translate(0 -290.73)" fill="#1a1c31"/>
  </g>
</svg>
