<svg xmlns="http://www.w3.org/2000/svg" width="17.501" height="17.5" viewBox="0 0 17.501 17.5">
  <path id="Path_3" data-name="Path 3" d="M8.492,2a6.989,6.989,0,0,1,2.781.569,7.031,7.031,0,0,1,3.809,3.81,6.992,6.992,0,0,1,.569,2.78,7.084,7.084,0,0,1-1.566,4.469L18.6,18.139a.8.8,0,0,1-1.131,1.131l-4.511-4.518a7.131,7.131,0,0,1-7.249,1A7.037,7.037,0,0,1,1.9,11.941a7.086,7.086,0,0,1,0-5.562,7.036,7.036,0,0,1,3.81-3.81A7.01,7.01,0,0,1,8.492,2Zm0,1.591a5.44,5.44,0,0,0-2.163.441A5.467,5.467,0,0,0,3.366,7a5.518,5.518,0,0,0,0,4.325A5.565,5.565,0,0,0,4.553,13.1a5.623,5.623,0,0,0,1.778,1.187,5.516,5.516,0,0,0,4.325,0,5.473,5.473,0,0,0,2.965-2.964A5.521,5.521,0,0,0,13.62,7a5.469,5.469,0,0,0-2.964-2.964,5.479,5.479,0,0,0-2.163-.441Z" transform="translate(-1.333 -2)" fill="#1a1c31"/>
</svg>
