<svg id="Component_4_1" data-name="Component 4 – 1" xmlns="http://www.w3.org/2000/svg" width="16" height="16" viewBox="0 0 16 16">
  <rect id="Rectangle_9" data-name="Rectangle 9" width="16" height="16" fill="none"/>
  <g id="angle-down" transform="translate(0.596 -8.2)">
    <path id="Path_4" data-name="Path 4" d="M13.814,13.232a.431.431,0,0,1-.124.286L7.9,19.313a.392.392,0,0,1-.572,0L1.529,13.518a.39.39,0,0,1,0-.572l.621-.621a.405.405,0,0,1,.286-.125.429.429,0,0,1,.286.125l4.887,4.887L12.5,12.325a.39.39,0,0,1,.572,0l.622.621a.431.431,0,0,1,.124.286Z" fill="#020202"/>
  </g>
</svg>
